<svg xmlns="http://www.w3.org/2000/svg" version="1.1" xmlns:xlink="http://www.w3.org/1999/xlink" xmlns:svgjs="http://svgjs.dev/svgjs" width="1920" height="1080" preserveAspectRatio="none" viewBox="0 0 1920 1080"><g mask="url(&quot;#SvgjsMask1164&quot;)" fill="none"><rect width="1920" height="1080" x="0" y="0" fill="rgba(32, 50, 122, 0.11)"></rect><path d="M0,704.021C135.889,699.847,281.498,687.585,385.982,600.6C486.906,516.579,487.774,367.053,546.09,249.391C606.956,126.585,717.464,29.952,736.108,-105.836C757.921,-264.704,750.23,-439.097,658.7,-570.767C564.261,-706.621,404.302,-795.953,240.443,-818.874C84.973,-840.622,-60.467,-757.125,-202.984,-691.301C-327.118,-633.968,-445.008,-566.503,-532.85,-461.717C-619.711,-358.102,-658.394,-229.579,-698.333,-100.405C-745.376,51.743,-847.014,211.882,-786.691,359.27C-726.403,506.572,-547.304,560.903,-401.526,624.787C-273.992,680.676,-139.177,708.296,0,704.021" fill="rgba(27, 43, 104, 0.11)"></path><path d="M1920 1757.7240000000002C2045.767 1779.8780000000002 2158.2 1685.5520000000001 2272.275 1628.1509999999998 2399.814 1563.975 2567.078 1532.469 2626.059 1402.446 2685.041 1272.419 2617.848 1119.335 2562.853 987.572 2516.824 877.2909999999999 2419.449 805.325 2339.693 716.3340000000001 2261.5190000000002 629.1089999999999 2210.978 504.726 2099.082 470.102 1986.932 435.4 1875.497 513.037 1760.604 537.149 1633.654 563.791 1483.049 530.688 1388.2910000000002 619.271 1292.73 708.604 1270.627 857.203 1278.565 987.776 1285.8 1106.774 1362.723 1205.334 1429.909 1303.817 1487.166 1387.747 1564.833 1447.624 1639.374 1516.662 1731.718 1602.188 1796.044 1735.888 1920 1757.7240000000002" fill="rgba(37, 58, 140, 0.11)"></path></g><defs><mask id="SvgjsMask1164"><rect width="1920" height="1080" fill="#ffffff"></rect></mask></defs></svg>